Vigilante [BDRip-720p-Mkv-Ita/Eng/Esp/Deu-Ac3-MultiSub][TNTVillage.Scambioetico]




General
Complete name                    : C:\Vigilante [BDRip-720p-MultiLang-MultiSub-Chapters][RiP By MaX].mkv
Format                           : Matroska
File size                        : 4.35 GiB
Duration                         : 1h 29mn
Overall bit rate                 : 6 973 Kbps
Encoded date                     : UTC 2010-10-03 13:41:08
Writing application              : mkvmerge v4.3.0 ('Escape from the Island') built on Sep  5 2010 10:30:51
Writing library                  : libebml v1.0.0 + libmatroska v1.0.0

Video
ID                               : 1
Format                           : AVC
Format/Info                      : Advanced Video Codec
Format profile                   : High@L3.1
Format settings, CABAC           : Yes
Format settings, ReFrames        : 5 frames
Muxing mode                      : Container profile=Unknown@3.1
Codec ID                         : V_MPEG4/ISO/AVC
Duration                         : 1h 29mn
Bit rate                         : 5 554 Kbps
Width                            : 1 280 pixels
Height                           : 524 pixels
Display aspect ratio             : 2.40:1
Frame rate                       : 23.976 fps
Color space                      : YUV
Chroma subsampling               : 4:2:0
Bit depth                        : 8 bits
Scan type                        : Progressive
Bits/(Pixel*Frame)               : 0.345
Stream size                      : 3.39 GiB (78%)
Title                            : Vigilante [BDRip 720p][RiP By MaX]
Writing library                  : x264 core 105 r1724 b02df7b
Encoding settings                : cabac=1 / ref=5 / deblock=1:0:0 / analyse=0x3:0x133 / me=hex / subme=7 / psy=1 / psy_rd=1.00:0.00 / mixed_ref=1 / me_range=16 / chroma_me=1 / trellis=1 / 8x8dct=1 / cqm=0 / deadzone=21,11 / fast_pskip=0 / chroma_qp_offset=-2 / threads=6 / sliced_threads=0 / nr=0 / decimate=0 / interlaced=0 / constrained_intra=0 / bframes=2 / b_pyramid=2 / b_adapt=1 / b_bias=0 / direct=3 / weightb=1 / open_gop=0 / weightp=2 / keyint=240 / keyint_min=23 / scenecut=40 / intra_refresh=0 / rc_lookahead=40 / rc=2pass / mbtree=1 / bitrate=5554 / ratetol=1.0 / qcomp=0.60 / qpmin=10 / qpmax=51 / qpstep=4 / cplxblur=20.0 / qblur=0.5 / ip_ratio=1.40 / aq=1:1.00
Language                         : Italian

Audio #1
ID                               : 2
Format                           : AC-3
Format/Info                      : Audio Coding 3
Format profile                   : Dolby Digital
Mode extension                   : CM (complete main)
Codec ID                         : A_AC3
Duration                         : 1h 29mn
Bit rate mode                    : Constant
Bit rate                         : 256 Kbps
Channel(s)                       : 2 channels
Channel positions                : Front: L R
Sampling rate                    : 48.0 KHz
Bit depth                        : 16 bits
Video delay                      : 8ms
Stream size                      : 164 MiB (4%)
Title                            : Ita Ac3 2.0
Language                         : Italian

Audio #2
ID                               : 3
Format                           : AC-3
Format/Info                      : Audio Coding 3
Mode extension                   : CM (complete main)
Codec ID                         : A_AC3
Duration                         : 1h 29mn
Bit rate mode                    : Constant
Bit rate                         : 640 Kbps
Channel(s)                       : 6 channels
Channel positions                : Front: L C R, Side: L R, LFE
Sampling rate                    : 48.0 KHz
Bit depth                        : 16 bits
Video delay                      : 8ms
Stream size                      : 409 MiB (9%)
Title                            : Eng Ac3 5.1

Audio #3
ID                               : 4
Format                           : AC-3
Format/Info                      : Audio Coding 3
Format profile                   : Dolby Digital
Mode extension                   : CM (complete main)
Codec ID                         : A_AC3
Duration                         : 1h 29mn
Bit rate mode                    : Constant
Bit rate                         : 256 Kbps
Channel(s)                       : 2 channels
Channel positions                : Front: L R
Sampling rate                    : 48.0 KHz
Bit depth                        : 16 bits
Video delay                      : 8ms
Stream size                      : 164 MiB (4%)
Title                            : Fra Ac3 2.0
Language                         : French

Audio #4
ID                               : 5
Format                           : AC-3
Format/Info                      : Audio Coding 3
Format profile                   : Dolby Digital
Mode extension                   : CM (complete main)
Codec ID                         : A_AC3
Duration                         : 1h 29mn
Bit rate mode                    : Constant
Bit rate                         : 256 Kbps
Channel(s)                       : 2 channels
Channel positions                : Front: L R
Sampling rate                    : 48.0 KHz
Bit depth                        : 16 bits
Video delay                      : 8ms
Stream size                      : 164 MiB (4%)
Title                            : Deu Ac3 2.0
Language                         : German

Text #1
ID                               : 6
Format                           : VobSub
Codec ID                         : S_VOBSUB
Codec ID/Info                    : The same subtitle format used on DVDs
Title                            : Sub Eng

Text #2
ID                               : 7
Format                           : VobSub
Codec ID                         : S_VOBSUB
Codec ID/Info                    : The same subtitle format used on DVDs
Title                            : Sub Fra
Language                         : French

Text #3
ID                               : 8
Format                           : VobSub
Codec ID                         : S_VOBSUB
Codec ID/Info                    : The same subtitle format used on DVDs
Title                            : Sub Esp
Language                         : Spanish

Text #4
ID                               : 9
Format                           : VobSub
Codec ID                         : S_VOBSUB
Codec ID/Info                    : The same subtitle format used on DVDs
Title                            : Sub Por
Language                         : Portuguese

Menu
00:00:00.000                     : :01
00:01:46.648                     : :02
00:07:57.060                     : :03
00:12:29.540                     : :04
00:18:44.957                     : :05
00:24:29.218                     : :06
00:30:21.820                     : :07
00:35:45.727                     : :08
00:43:02.205                     : :09
00:51:36.760                     : :10
00:55:43.674                     : :11
01:01:55.962                     : :12
01:11:07.555                     : :13
01:16:37.092                     : :14
01:21:57.913                     : :15
01:25:53.440                     : :16